<svg width="16" height="16" viewBox="0 0 16 16" fill="none" xmlns="http://www.w3.org/2000/svg">
<g clip-path="url(#clip0_78_40)">
<path fill-rule="evenodd" clip-rule="evenodd" d="M5.18395 0.90004C5.91535 0.866369 6.14855 0.858887 8.01166 0.858887C9.87476 0.858887 10.108 0.866993 10.8387 0.90004C11.5695 0.933087 12.0683 1.04969 12.5048 1.21866C12.9619 1.39138 13.3765 1.66137 13.7194 2.01055C14.0686 2.35286 14.338 2.76689 14.5101 3.22456C14.6797 3.66103 14.7957 4.15985 14.8293 4.88938C14.863 5.62203 14.8705 5.85523 14.8705 7.71771C14.8705 9.58082 14.8624 9.81402 14.8293 10.5454C14.7963 11.2749 14.6797 11.7738 14.5101 12.2102C14.338 12.668 14.0682 13.0827 13.7194 13.4255C13.3765 13.7747 12.9619 14.044 12.5048 14.2161C12.0683 14.3857 11.5695 14.5017 10.84 14.5354C10.108 14.5691 9.87476 14.5765 8.01166 14.5765C6.14855 14.5765 5.91535 14.5684 5.18395 14.5354C4.45442 14.5023 3.9556 14.3857 3.51913 14.2161C3.06141 14.044 2.6467 13.7742 2.30387 13.4255C1.95493 13.083 1.6849 12.6685 1.51261 12.2109C1.34363 11.7744 1.22766 11.2756 1.19398 10.546C1.16031 9.81339 1.15283 9.58019 1.15283 7.71771C1.15283 5.8546 1.16094 5.6214 1.19398 4.89063C1.22703 4.15985 1.34363 3.66103 1.51261 3.22456C1.68515 2.76694 1.95539 2.35243 2.30449 2.00992C2.64683 1.66106 3.06113 1.39103 3.5185 1.21866C3.95497 1.04969 4.4538 0.93371 5.18333 0.90004H5.18395ZM10.7832 2.13463C10.0599 2.10158 9.84296 2.09472 8.01166 2.09472C6.18035 2.09472 5.96336 2.10158 5.24007 2.13463C4.57102 2.16518 4.20813 2.27679 3.9662 2.37095C3.64633 2.49565 3.41749 2.64343 3.17743 2.88349C2.94987 3.10487 2.77474 3.37438 2.66489 3.67225C2.57074 3.91418 2.45913 4.27707 2.42857 4.94612C2.39553 5.66942 2.38867 5.8864 2.38867 7.71771C2.38867 9.54902 2.39553 9.766 2.42857 10.4893C2.45913 11.1583 2.57074 11.5212 2.66489 11.7632C2.77463 12.0606 2.94984 12.3306 3.17743 12.5519C3.39878 12.7795 3.66877 12.9547 3.9662 13.0645C4.20813 13.1586 4.57102 13.2702 5.24007 13.3008C5.96336 13.3338 6.17973 13.3407 8.01166 13.3407C9.84358 13.3407 10.0599 13.3338 10.7832 13.3008C11.4523 13.2702 11.8152 13.1586 12.0571 13.0645C12.377 12.9398 12.6058 12.792 12.8459 12.5519C13.0735 12.3306 13.2487 12.0606 13.3584 11.7632C13.4526 11.5212 13.5642 11.1583 13.5947 10.4893C13.6278 9.766 13.6346 9.54902 13.6346 7.71771C13.6346 5.8864 13.6278 5.66942 13.5947 4.94612C13.5642 4.27707 13.4526 3.91418 13.3584 3.67225C13.2337 3.35238 13.0859 3.12355 12.8459 2.88349C12.6245 2.65594 12.355 2.48082 12.0571 2.37095C11.8152 2.27679 11.4523 2.16518 10.7832 2.13463ZM7.1356 9.8321C7.62485 10.0358 8.16964 10.0632 8.67692 9.90987C9.18419 9.75648 9.62248 9.43174 9.91692 8.99111C10.2114 8.55048 10.3437 8.02129 10.2913 7.49393C10.2389 6.96657 10.0051 6.47375 9.62971 6.09965C9.39043 5.86051 9.10109 5.6774 8.78255 5.56351C8.464 5.44961 8.12416 5.40776 7.78749 5.44096C7.45083 5.47417 7.12572 5.58161 6.83556 5.75554C6.5454 5.92948 6.29741 6.16559 6.10946 6.44686C5.9215 6.72814 5.79824 7.0476 5.74857 7.38223C5.69889 7.71686 5.72402 8.05834 5.82216 8.38209C5.92029 8.70584 6.08899 9.00381 6.3161 9.25454C6.54322 9.50527 6.8231 9.70252 7.1356 9.8321ZM5.51878 5.22484C5.84615 4.89747 6.2348 4.63779 6.66252 4.46062C7.09025 4.28345 7.54869 4.19226 8.01166 4.19226C8.47462 4.19226 8.93306 4.28345 9.36079 4.46062C9.78851 4.63779 10.1772 4.89747 10.5045 5.22484C10.8319 5.55221 11.0916 5.94085 11.2687 6.36858C11.4459 6.79631 11.5371 7.25474 11.5371 7.71771C11.5371 8.18068 11.4459 8.63911 11.2687 9.06684C11.0916 9.49457 10.8319 9.88321 10.5045 10.2106C9.84338 10.8717 8.94666 11.2432 8.01166 11.2432C7.07665 11.2432 6.17993 10.8717 5.51878 10.2106C4.85763 9.54943 4.4862 8.65272 4.4862 7.71771C4.4862 6.7827 4.85763 5.88599 5.51878 5.22484ZM12.319 4.71729C12.4001 4.64076 12.4651 4.54873 12.51 4.44666C12.5549 4.34458 12.5789 4.23453 12.5805 4.12302C12.5821 4.01151 12.5614 3.9008 12.5195 3.79746C12.4775 3.69412 12.4153 3.60024 12.3364 3.52138C12.2576 3.44252 12.1637 3.38029 12.0604 3.33836C11.957 3.29644 11.8463 3.27567 11.7348 3.2773C11.6233 3.27892 11.5132 3.30291 11.4112 3.34783C11.3091 3.39275 11.2171 3.45769 11.1405 3.53882C10.9917 3.69659 10.9102 3.90615 10.9134 4.12302C10.9165 4.33989 11.0041 4.54699 11.1575 4.70035C11.3108 4.85372 11.5179 4.94128 11.7348 4.94444C11.9517 4.9476 12.1612 4.86612 12.319 4.71729Z" fill="black"/>
</g>
<defs>
<clipPath id="clip0_78_40">
<rect width="14.9647" height="14.9647" fill="white" transform="translate(0.529297 0.235352)"/>
</clipPath>
</defs>
</svg>
