<svg width="16" height="16" viewBox="0 0 16 16" fill="none" xmlns="http://www.w3.org/2000/svg">
<path d="M3.98928 4.72295C4.74275 4.72295 5.35356 4.11214 5.35356 3.35867C5.35356 2.60519 4.74275 1.99438 3.98928 1.99438C3.23581 1.99438 2.625 2.60519 2.625 3.35867C2.625 4.11214 3.23581 4.72295 3.98928 4.72295Z" fill="black"/>
<path d="M6.64197 5.75664V13.3257H8.99205V9.58261C8.99205 8.59494 9.17787 7.63845 10.4025 7.63845C11.6103 7.63845 11.6252 8.76766 11.6252 9.64497V13.3263H13.9766V9.17545C13.9766 7.13651 13.5376 5.56958 11.1545 5.56958C10.0103 5.56958 9.24334 6.19747 8.9297 6.7917H8.8979V5.75664H6.64197ZM2.81226 5.75664H5.16608V13.3257H2.81226V5.75664Z" fill="black"/>
</svg>
