<svg width="29" height="29" viewBox="0 0 29 29" fill="none" xmlns="http://www.w3.org/2000/svg">
<path d="M24.1666 14.4998C24.1666 13.167 23.0827 12.0832 21.7499 12.0832H20.5416V8.45817C20.5416 5.1268 17.8313 2.4165 14.4999 2.4165C11.1685 2.4165 8.45825 5.1268 8.45825 8.45817V12.0832H7.24992C5.91713 12.0832 4.83325 13.167 4.83325 14.4998V24.1665C4.83325 25.4993 5.91713 26.5832 7.24992 26.5832H21.7499C23.0827 26.5832 24.1666 25.4993 24.1666 24.1665V14.4998ZM10.8749 8.45817C10.8749 6.45959 12.5013 4.83317 14.4999 4.83317C16.4985 4.83317 18.1249 6.45959 18.1249 8.45817V12.0832H10.8749V8.45817Z" fill="white"/>
</svg>
