<svg width="24" height="25" viewBox="0 0 24 25" fill="none" xmlns="http://www.w3.org/2000/svg">
<mask id="path-1-inside-1_78_151" fill="white">
<path d="M12 0C12.3978 0 12.7794 0.162709 13.0607 0.452334C13.342 0.741959 13.5 1.13477 13.5 1.54436V10.8106H22.5C22.8978 10.8106 23.2794 10.9733 23.5607 11.2629C23.842 11.5525 24 11.9453 24 12.3549C24 12.7645 23.842 13.1573 23.5607 13.4469C23.2794 13.7366 22.8978 13.8993 22.5 13.8993H13.5V23.1655C13.5 23.5751 13.342 23.9679 13.0607 24.2575C12.7794 24.5471 12.3978 24.7098 12 24.7098C11.6022 24.7098 11.2206 24.5471 10.9393 24.2575C10.658 23.9679 10.5 23.5751 10.5 23.1655V13.8993H1.5C1.10218 13.8993 0.720644 13.7366 0.43934 13.4469C0.158035 13.1573 0 12.7645 0 12.3549C0 11.9453 0.158035 11.5525 0.43934 11.2629C0.720644 10.9733 1.10218 10.8106 1.5 10.8106H10.5V1.54436C10.5 1.13477 10.658 0.741959 10.9393 0.452334C11.2206 0.162709 11.6022 0 12 0Z"/>
</mask>
<path d="M12 0C12.3978 0 12.7794 0.162709 13.0607 0.452334C13.342 0.741959 13.5 1.13477 13.5 1.54436V10.8106H22.5C22.8978 10.8106 23.2794 10.9733 23.5607 11.2629C23.842 11.5525 24 11.9453 24 12.3549C24 12.7645 23.842 13.1573 23.5607 13.4469C23.2794 13.7366 22.8978 13.8993 22.5 13.8993H13.5V23.1655C13.5 23.5751 13.342 23.9679 13.0607 24.2575C12.7794 24.5471 12.3978 24.7098 12 24.7098C11.6022 24.7098 11.2206 24.5471 10.9393 24.2575C10.658 23.9679 10.5 23.5751 10.5 23.1655V13.8993H1.5C1.10218 13.8993 0.720644 13.7366 0.43934 13.4469C0.158035 13.1573 0 12.7645 0 12.3549C0 11.9453 0.158035 11.5525 0.43934 11.2629C0.720644 10.9733 1.10218 10.8106 1.5 10.8106H10.5V1.54436C10.5 1.13477 10.658 0.741959 10.9393 0.452334C11.2206 0.162709 11.6022 0 12 0Z" fill="#3693CD"/>
<path d="M12 0L12 -4L12 0ZM13.5 10.8106H9.5V14.8106H13.5V10.8106ZM13.5 13.8993V9.89928H9.5V13.8993H13.5ZM10.5 13.8993H14.5V9.89928H10.5V13.8993ZM0 12.3549L-4 12.3549L0 12.3549ZM1.5 10.8106V14.8106V10.8106ZM10.5 10.8106V14.8106H14.5V10.8106H10.5ZM12 4C11.2987 4 10.6506 3.71209 10.1913 3.23925L15.93 -2.33458C14.9081 -3.38667 13.4969 -4 12 -4L12 4ZM10.1913 3.23925C9.73591 2.77037 9.5 2.15863 9.5 1.54436H17.5C17.5 0.110913 16.948 -1.28646 15.93 -2.33458L10.1913 3.23925ZM9.5 1.54436V10.8106H17.5V1.54436H9.5ZM13.5 14.8106H22.5V6.81055H13.5V14.8106ZM22.5 14.8106C21.7987 14.8106 21.1506 14.5226 20.6913 14.0498L26.43 8.47598C25.4081 7.42389 23.9969 6.81055 22.5 6.81055V14.8106ZM20.6913 14.0498C20.2359 13.5809 20 12.9692 20 12.3549H28C28 10.9215 27.448 9.5241 26.43 8.47598L20.6913 14.0498ZM20 12.3549C20 11.7406 20.2359 11.1289 20.6913 10.66L26.43 16.2339C27.448 15.1857 28 13.7884 28 12.3549H20ZM20.6913 10.66C21.1506 10.1872 21.7987 9.89928 22.5 9.89928V17.8993C23.9969 17.8993 25.4081 17.2859 26.43 16.2339L20.6913 10.66ZM22.5 9.89928H13.5V17.8993H22.5V9.89928ZM9.5 13.8993V23.1655H17.5V13.8993H9.5ZM9.5 23.1655C9.5 22.5512 9.73591 21.9395 10.1913 21.4706L15.93 27.0444C16.948 25.9963 17.5 24.5989 17.5 23.1655H9.5ZM10.1913 21.4706C10.6506 20.9978 11.2987 20.7098 12 20.7098V28.7098C13.4969 28.7098 14.9081 28.0965 15.93 27.0444L10.1913 21.4706ZM12 20.7098C12.7013 20.7098 13.3494 20.9978 13.8087 21.4706L8.07 27.0444C9.09187 28.0965 10.5031 28.7098 12 28.7098V20.7098ZM13.8087 21.4706C14.2641 21.9395 14.5 22.5512 14.5 23.1655H6.5C6.5 24.5989 7.05198 25.9963 8.07 27.0444L13.8087 21.4706ZM14.5 23.1655V13.8993H6.5V23.1655H14.5ZM10.5 9.89928H1.5V17.8993H10.5V9.89928ZM1.5 9.89928C2.20129 9.89928 2.84943 10.1872 3.30868 10.66L-2.43 16.2339C-1.40814 17.286 0.0030628 17.8993 1.5 17.8993V9.89928ZM3.30868 10.66C3.76409 11.1289 4 11.7407 4 12.3549L-4 12.3549C-4 13.7884 -3.44802 15.1857 -2.43 16.2339L3.30868 10.66ZM4 12.3549C4 12.9692 3.76409 13.5809 3.30868 14.0498L-2.43 8.47598C-3.44802 9.5241 -4 10.9215 -4 12.3549H4ZM3.30868 14.0498C2.84943 14.5226 2.20129 14.8106 1.5 14.8106L1.5 6.81055C0.0030628 6.81055 -1.40814 7.42389 -2.43 8.47598L3.30868 14.0498ZM1.5 14.8106H10.5V6.81055H1.5V14.8106ZM14.5 10.8106V1.54436H6.5V10.8106H14.5ZM14.5 1.54436C14.5 2.15863 14.2641 2.77037 13.8087 3.23925L8.07 -2.33458C7.05199 -1.28646 6.5 0.110913 6.5 1.54436H14.5ZM13.8087 3.23925C13.3494 3.71209 12.7013 4 12 4L12 -4C10.5031 -4 9.09186 -3.38667 8.07 -2.33458L13.8087 3.23925Z" fill="#3693CD" mask="url(#path-1-inside-1_78_151)"/>
</svg>
