<svg width="16" height="16" viewBox="0 0 16 16" fill="none" xmlns="http://www.w3.org/2000/svg">
<g clip-path="url(#clip0_78_46)">
<path d="M2.10595 8.653L7.09419 1.50112V8.653H2.10595ZM8.02948 8.653C8.87124 6.31477 8.75901 3.17218 8.02948 0.858887C10.9975 1.81912 13.2671 5.473 13.3045 8.653H8.02948ZM13.3918 10.8852C13.1362 11.2843 12.8369 11.6272 12.4877 11.9203C12.0824 11.7395 11.7208 11.4589 11.434 11.1471C10.5049 12.3505 8.62807 12.3505 7.69901 11.1471C6.78242 12.3505 4.89313 12.3505 3.97654 11.1471C3.66477 11.4589 3.32183 11.7395 2.91654 11.9203C2.20572 11.3342 1.66948 10.4987 1.48242 9.5883H13.9156C13.8186 10.048 13.6413 10.4871 13.3918 10.8852ZM13.3045 14.5765C12.6436 14.5765 12.0201 14.4207 11.434 14.1089C10.2867 14.7324 8.8463 14.7324 7.69901 14.1089C6.55172 14.7324 5.11136 14.7324 3.97654 14.1089C3.2096 14.5391 2.33042 14.6077 1.48242 14.5765V13.3295C2.3616 13.3607 3.2096 13.2671 3.97654 12.7059C5.06148 13.4854 6.6016 13.4854 7.69901 12.7059C8.80266 13.4854 10.3365 13.4854 11.434 12.7059C12.1884 13.2671 13.0427 13.3607 13.9156 13.3295V14.5765H13.3045Z" fill="black"/>
</g>
<defs>
<clipPath id="clip0_78_46">
<rect width="14.9647" height="14.9647" fill="white" transform="translate(0.235352 0.235352)"/>
</clipPath>
</defs>
</svg>
