<svg width="16" height="16" viewBox="0 0 16 16" fill="none" xmlns="http://www.w3.org/2000/svg">
<g clip-path="url(#clip0_78_37)">
<path d="M14.9186 3.31372C14.398 3.54442 13.8386 3.7003 13.2507 3.77076C13.8574 3.40774 14.3112 2.83638 14.5276 2.1633C13.9576 2.50187 13.3338 2.74019 12.6832 2.86789C12.2458 2.40078 11.6663 2.09118 11.0348 1.98714C10.4034 1.8831 9.75521 1.99046 9.19101 2.29253C8.6268 2.59461 8.17811 3.07451 7.91459 3.65772C7.65107 4.24093 7.58748 4.89483 7.73367 5.51789C6.5787 5.4599 5.44883 5.1597 4.41738 4.63679C3.38594 4.11387 2.47597 3.37991 1.74654 2.48255C1.49713 2.91279 1.35372 3.41161 1.35372 3.94286C1.35344 4.4211 1.47121 4.89202 1.69658 5.31383C1.92196 5.73564 2.24796 6.0953 2.64567 6.3609C2.18443 6.34623 1.73337 6.2216 1.33002 5.99739V6.0348C1.32998 6.70555 1.562 7.35567 1.98672 7.87483C2.41143 8.39399 3.00269 8.75022 3.66015 8.88308C3.23228 8.99888 2.78368 9.01594 2.34825 8.93296C2.53375 9.51011 2.89508 10.0148 3.38167 10.3764C3.86825 10.738 4.45573 10.9383 5.06185 10.9495C4.03292 11.7572 2.7622 12.1953 1.45411 12.1934C1.22239 12.1935 0.990872 12.1799 0.760742 12.1529C2.08853 13.0066 3.63418 13.4597 5.21274 13.4579C10.5564 13.4579 13.4776 9.0321 13.4776 5.19366C13.4776 5.06895 13.4745 4.943 13.4689 4.81829C14.0371 4.40737 14.5276 3.89852 14.9174 3.31559L14.9186 3.31372Z" fill="black"/>
</g>
<defs>
<clipPath id="clip0_78_37">
<rect width="14.9647" height="14.9647" fill="white" transform="translate(0.176514 0.235352)"/>
</clipPath>
</defs>
</svg>
