<svg width="25" height="24" viewBox="0 0 25 24" fill="none" xmlns="http://www.w3.org/2000/svg">
<g clip-path="url(#clip0_78_200)">
<path d="M24.2742 4.93659C23.4201 5.30659 22.5026 5.55659 21.5381 5.66959C22.5333 5.08738 23.2779 4.17105 23.6329 3.09159C22.6978 3.63458 21.6745 4.01678 20.6073 4.22159C19.8896 3.47245 18.9391 2.97591 17.9032 2.80906C16.8673 2.64221 15.8041 2.81438 14.8785 3.29884C13.953 3.7833 13.2169 4.55295 12.7847 5.48829C12.3524 6.42363 12.2481 7.47234 12.4879 8.47159C10.5932 8.37858 8.73977 7.89714 7.04776 7.05849C5.35575 6.21985 3.86302 5.04275 2.66645 3.60359C2.25731 4.29359 2.02205 5.09359 2.02205 5.94559C2.02159 6.71258 2.21479 7.46783 2.58449 8.14432C2.9542 8.82081 3.48899 9.39763 4.1414 9.82359C3.38477 9.80005 2.64484 9.60017 1.98318 9.24059V9.30059C1.98311 10.3763 2.36372 11.419 3.06043 12.2516C3.75715 13.0842 4.72706 13.6555 5.80558 13.8686C5.10369 14.0543 4.3678 14.0817 3.6535 13.9486C3.9578 14.8742 4.55054 15.6836 5.34874 16.2635C6.14695 16.8434 7.11066 17.1648 8.10496 17.1826C6.41708 18.478 4.33256 19.1807 2.18673 19.1776C1.80662 19.1777 1.42683 19.156 1.04932 19.1126C3.22746 20.4818 5.76297 21.2084 8.35249 21.2056C17.1183 21.2056 21.9104 14.1076 21.9104 7.95159C21.9104 7.75159 21.9053 7.54959 21.8961 7.34959C22.8282 6.69056 23.6328 5.87448 24.2722 4.93959L24.2742 4.93659V4.93659Z" fill="white"/>
</g>
<defs>
<clipPath id="clip0_78_200">
<rect width="24.5485" height="24" fill="white" transform="translate(0.0908203)"/>
</clipPath>
</defs>
</svg>
